<svg xmlns="http://www.w3.org/2000/svg" width="17.5" height="17.5" viewBox="0 0 17.5 17.5">
  <path id="패스_7828" data-name="패스 7828" d="M8.75,0A8.751,8.751,0,0,0,1.16,13.106l-1.127,3.5a.684.684,0,0,0,.86.86l3.5-1.127A8.75,8.75,0,1,0,8.75,0Zm0,16.133a7.361,7.361,0,0,1-3.908-1.119.684.684,0,0,0-.572-.071l-2.527.814.814-2.527a.684.684,0,0,0-.071-.572A7.383,7.383,0,1,1,8.75,16.133ZM9.6,8.75A.854.854,0,1,1,8.75,7.9.854.854,0,0,1,9.6,8.75Zm3.418,0a.854.854,0,1,1-.854-.854A.854.854,0,0,1,13.022,8.75Zm-6.836,0A.854.854,0,1,1,5.332,7.9.854.854,0,0,1,6.187,8.75Z"/>
</svg>
